<svg xmlns="http://www.w3.org/2000/svg" width="1200" height="700" viewBox="0 0 1200 700" role="img" aria-labelledby="title desc">
<title id="title">Predictor effect by risk policy and arrival timing</title>
<desc id="desc">Thesis figure generated from the frozen paper results manifest.</desc>
<defs>
<marker id="arrow" markerWidth="10" markerHeight="8" refX="9" refY="4" orient="auto"><path d="M0,0 L10,4 L0,8 z" fill="#5B6773"/></marker>
<style>text{font-family:Arial,Helvetica,sans-serif;fill:#17212B} .title{font-size:24px;font-weight:700}.subtitle{font-size:14px;fill:#5B6773}.panel{font-size:17px;font-weight:700}.label{font-size:14px}.small{font-size:12px;fill:#5B6773}.tiny{font-size:10.5px;fill:#5B6773}.axis{stroke:#5B6773;stroke-width:1.2}.grid{stroke:#D7DEE5;stroke-width:1}.box{fill:#F3F6F8;stroke:#AAB4BE;stroke-width:1.2}</style>
</defs>
<rect x="0" y="0" width="1200" height="700" fill="#FFFFFF"/>
<text x="60.00" y="42.00" class="title" text-anchor="start">Predictor effect varies with risk policy and arrival timing</text>
<text x="60.00" y="66.00" class="subtitle" text-anchor="start">Five-init cluster intervals; negative delay favours B1, positive separation favours B1.</text>
<line x1="130.00" y1="170.00" x2="130.00" y2="490.00" stroke="#D7DEE5" stroke-width="1"/>
<text x="130.00" y="510.00" class="tiny" text-anchor="middle">-1.70</text>
<line x1="227.50" y1="170.00" x2="227.50" y2="490.00" stroke="#D7DEE5" stroke-width="1"/>
<text x="227.50" y="510.00" class="tiny" text-anchor="middle">-1.02</text>
<line x1="325.00" y1="170.00" x2="325.00" y2="490.00" stroke="#D7DEE5" stroke-width="1"/>
<text x="325.00" y="510.00" class="tiny" text-anchor="middle">-0.35</text>
<line x1="422.50" y1="170.00" x2="422.50" y2="490.00" stroke="#D7DEE5" stroke-width="1"/>
<text x="422.50" y="510.00" class="tiny" text-anchor="middle">0.33</text>
<line x1="520.00" y1="170.00" x2="520.00" y2="490.00" stroke="#D7DEE5" stroke-width="1"/>
<text x="520.00" y="510.00" class="tiny" text-anchor="middle">1.00</text>
<line x1="375.56" y1="170.00" x2="375.56" y2="490.00" stroke="#5B6773" stroke-width="1.3"/>
<text x="116.00" y="229.00" class="small" text-anchor="end">−3 m</text>
<line x1="158.89" y1="214.00" x2="374.11" y2="214.00" stroke="#17845B" stroke-width="3"/>
<line x1="158.89" y1="209.00" x2="158.89" y2="219.00" stroke="#17845B" stroke-width="1.5"/>
<line x1="374.11" y1="209.00" x2="374.11" y2="219.00" stroke="#17845B" stroke-width="1.5"/>
<circle cx="266.50" cy="214.00" r="6.00" fill="#17845B" stroke="#FFFFFF" stroke-width="1.5"/>
<line x1="152.39" y1="232.00" x2="369.78" y2="232.00" stroke="#2474B5" stroke-width="3"/>
<line x1="152.39" y1="227.00" x2="152.39" y2="237.00" stroke="#2474B5" stroke-width="1.5"/>
<line x1="369.78" y1="227.00" x2="369.78" y2="237.00" stroke="#2474B5" stroke-width="1.5"/>
<circle cx="267.22" cy="232.00" r="6.00" fill="#2474B5" stroke="#FFFFFF" stroke-width="1.5"/>
<text x="116.00" y="321.00" class="small" text-anchor="end">0 m</text>
<line x1="348.83" y1="306.00" x2="493.28" y2="306.00" stroke="#17845B" stroke-width="3"/>
<line x1="348.83" y1="301.00" x2="348.83" y2="311.00" stroke="#17845B" stroke-width="1.5"/>
<line x1="493.28" y1="301.00" x2="493.28" y2="311.00" stroke="#17845B" stroke-width="1.5"/>
<circle cx="418.17" cy="306.00" r="6.00" fill="#17845B" stroke="#FFFFFF" stroke-width="1.5"/>
<line x1="318.50" y1="324.00" x2="478.83" y2="324.00" stroke="#2474B5" stroke-width="3"/>
<line x1="318.50" y1="319.00" x2="318.50" y2="329.00" stroke="#2474B5" stroke-width="1.5"/>
<line x1="478.83" y1="319.00" x2="478.83" y2="329.00" stroke="#2474B5" stroke-width="1.5"/>
<circle cx="390.72" cy="324.00" r="6.00" fill="#2474B5" stroke="#FFFFFF" stroke-width="1.5"/>
<text x="116.00" y="413.00" class="small" text-anchor="end">+3 m</text>
<line x1="205.11" y1="398.00" x2="354.61" y2="398.00" stroke="#17845B" stroke-width="3"/>
<line x1="205.11" y1="393.00" x2="205.11" y2="403.00" stroke="#17845B" stroke-width="1.5"/>
<line x1="354.61" y1="393.00" x2="354.61" y2="403.00" stroke="#17845B" stroke-width="1.5"/>
<circle cx="281.67" cy="398.00" r="6.00" fill="#17845B" stroke="#FFFFFF" stroke-width="1.5"/>
<line x1="267.22" y1="416.00" x2="366.17" y2="416.00" stroke="#2474B5" stroke-width="3"/>
<line x1="267.22" y1="411.00" x2="267.22" y2="421.00" stroke="#2474B5" stroke-width="1.5"/>
<line x1="366.17" y1="411.00" x2="366.17" y2="421.00" stroke="#2474B5" stroke-width="1.5"/>
<circle cx="322.83" cy="416.00" r="6.00" fill="#2474B5" stroke="#FFFFFF" stroke-width="1.5"/>
<text x="325.00" y="152.00" class="panel" text-anchor="middle">(a) Adjusted completion delay (s)</text>
<text x="325.00" y="534.00" class="small" text-anchor="middle">B1 − B0 effect</text>
<line x1="730.00" y1="170.00" x2="730.00" y2="490.00" stroke="#D7DEE5" stroke-width="1"/>
<text x="730.00" y="510.00" class="tiny" text-anchor="middle">-0.50</text>
<line x1="827.50" y1="170.00" x2="827.50" y2="490.00" stroke="#D7DEE5" stroke-width="1"/>
<text x="827.50" y="510.00" class="tiny" text-anchor="middle">-0.30</text>
<line x1="925.00" y1="170.00" x2="925.00" y2="490.00" stroke="#D7DEE5" stroke-width="1"/>
<text x="925.00" y="510.00" class="tiny" text-anchor="middle">-0.10</text>
<line x1="1022.50" y1="170.00" x2="1022.50" y2="490.00" stroke="#D7DEE5" stroke-width="1"/>
<text x="1022.50" y="510.00" class="tiny" text-anchor="middle">0.10</text>
<line x1="1120.00" y1="170.00" x2="1120.00" y2="490.00" stroke="#D7DEE5" stroke-width="1"/>
<text x="1120.00" y="510.00" class="tiny" text-anchor="middle">0.30</text>
<line x1="973.75" y1="170.00" x2="973.75" y2="490.00" stroke="#5B6773" stroke-width="1.3"/>
<text x="716.00" y="229.00" class="small" text-anchor="end">−3 m</text>
<line x1="804.49" y1="214.00" x2="972.52" y2="214.00" stroke="#17845B" stroke-width="3"/>
<line x1="804.49" y1="209.00" x2="804.49" y2="219.00" stroke="#17845B" stroke-width="1.5"/>
<line x1="972.52" y1="209.00" x2="972.52" y2="219.00" stroke="#17845B" stroke-width="1.5"/>
<circle cx="914.64" cy="214.00" r="6.00" fill="#17845B" stroke="#FFFFFF" stroke-width="1.5"/>
<line x1="761.56" y1="232.00" x2="999.71" y2="232.00" stroke="#2474B5" stroke-width="3"/>
<line x1="761.56" y1="227.00" x2="761.56" y2="237.00" stroke="#2474B5" stroke-width="1.5"/>
<line x1="999.71" y1="227.00" x2="999.71" y2="237.00" stroke="#2474B5" stroke-width="1.5"/>
<circle cx="895.42" cy="232.00" r="6.00" fill="#2474B5" stroke="#FFFFFF" stroke-width="1.5"/>
<text x="716.00" y="321.00" class="small" text-anchor="end">0 m</text>
<line x1="917.21" y1="306.00" x2="976.62" y2="306.00" stroke="#17845B" stroke-width="3"/>
<line x1="917.21" y1="301.00" x2="917.21" y2="311.00" stroke="#17845B" stroke-width="1.5"/>
<line x1="976.62" y1="301.00" x2="976.62" y2="311.00" stroke="#17845B" stroke-width="1.5"/>
<circle cx="953.69" cy="306.00" r="6.00" fill="#17845B" stroke="#FFFFFF" stroke-width="1.5"/>
<line x1="926.80" y1="324.00" x2="985.53" y2="324.00" stroke="#2474B5" stroke-width="3"/>
<line x1="926.80" y1="319.00" x2="926.80" y2="329.00" stroke="#2474B5" stroke-width="1.5"/>
<line x1="985.53" y1="319.00" x2="985.53" y2="329.00" stroke="#2474B5" stroke-width="1.5"/>
<circle cx="963.43" cy="324.00" r="6.00" fill="#2474B5" stroke="#FFFFFF" stroke-width="1.5"/>
<text x="716.00" y="413.00" class="small" text-anchor="end">+3 m</text>
<line x1="910.43" y1="398.00" x2="984.57" y2="398.00" stroke="#17845B" stroke-width="3"/>
<line x1="910.43" y1="393.00" x2="910.43" y2="403.00" stroke="#17845B" stroke-width="1.5"/>
<line x1="984.57" y1="393.00" x2="984.57" y2="403.00" stroke="#17845B" stroke-width="1.5"/>
<circle cx="951.49" cy="398.00" r="6.00" fill="#17845B" stroke="#FFFFFF" stroke-width="1.5"/>
<line x1="982.48" y1="416.00" x2="1030.55" y2="416.00" stroke="#2474B5" stroke-width="3"/>
<line x1="982.48" y1="411.00" x2="982.48" y2="421.00" stroke="#2474B5" stroke-width="1.5"/>
<line x1="1030.55" y1="411.00" x2="1030.55" y2="421.00" stroke="#2474B5" stroke-width="1.5"/>
<circle cx="1010.48" cy="416.00" r="6.00" fill="#2474B5" stroke="#FFFFFF" stroke-width="1.5"/>
<text x="925.00" y="152.00" class="panel" text-anchor="middle">(b) Minimum footprint separation (m)</text>
<text x="925.00" y="534.00" class="small" text-anchor="middle">B1 − B0 effect</text>
<circle cx="315.00" cy="600.00" r="6.00" fill="#17845B" stroke="#FFFFFF" stroke-width="1.5"/>
<text x="329.00" y="604.00" class="small" text-anchor="start">fixed medium</text>
<circle cx="455.00" cy="600.00" r="6.00" fill="#2474B5" stroke="#FFFFFF" stroke-width="1.5"/>
<text x="469.00" y="604.00" class="small" text-anchor="start">adaptive</text>
<text x="600.00" y="655.00" class="small" text-anchor="middle">Intervals crossing zero and sign changes across conditions reject a claim of uniform closed-loop gain.</text>
</svg>
