<svg xmlns="http://www.w3.org/2000/svg" width="1260" height="570" viewBox="0 0 1260 570" role="img" aria-labelledby="title desc">
<title id="title">Offline factor landscape</title><desc id="desc">Seed-level and mean history and capacity curves for the V3 offline study.</desc>
<style>
text { font-family: Arial, Helvetica, sans-serif; fill: #202124; }
.title { font-size: 18px; font-weight: 600; }
.subtitle { font-size: 11.5px; fill: #5F6368; }
.panel-title { font-size: 13px; font-weight: 600; }
.label { font-size: 11px; } .small { font-size: 9.5px; }
.axis { stroke: #202124; stroke-width: 1.1; }
.grid { stroke: #D9D9D9; stroke-width: .8; }
.panel { fill: #FFFFFF; stroke: none; }
</style><rect width="100%" height="100%" fill="#FFFFFF"/><text class="title" x="54" y="40">Controlled offline ablations</text>
<text class="subtitle" x="54" y="62">Thin lines denote random seeds; bold lines denote means under matched evaluation units.</text>
<rect class="panel" x="42" y="82" width="736" height="445"/>
<text class="panel-title" x="60" y="110">A  Information and architecture at matched large capacity</text>
<line class="axis" x1="120" y1="430" x2="744" y2="430"/>
<line class="axis" x1="120" y1="135" x2="120" y2="430"/>
<line class="grid" x1="120" y1="430.0" x2="744" y2="430.0"/>
<text class="small" x="112" y="433.5" text-anchor="end">3.913</text>
<line class="grid" x1="120" y1="356.2" x2="744" y2="356.2"/>
<text class="small" x="112" y="359.8" text-anchor="end">3.921</text>
<line class="grid" x1="120" y1="282.5" x2="744" y2="282.5"/>
<text class="small" x="112" y="286.0" text-anchor="end">3.929</text>
<line class="grid" x1="120" y1="208.8" x2="744" y2="208.8"/>
<text class="small" x="112" y="212.2" text-anchor="end">3.937</text>
<line class="grid" x1="120" y1="135.0" x2="744" y2="135.0"/>
<text class="small" x="112" y="138.5" text-anchor="end">3.945</text>
<text class="label" x="120.0" y="452" text-anchor="middle">0.0</text>
<text class="label" x="369.6" y="452" text-anchor="middle">0.4</text>
<text class="label" x="744.0" y="452" text-anchor="middle">1.0</text>
<text class="label" x="432.0" y="475" text-anchor="middle">Explicit interaction history (s)</text>
<text class="small" transform="translate(64 282.5) rotate(-90)" text-anchor="middle">Rollout-macro NLL (lower is better)</text>
<circle cx="120.0" cy="294.0" r="3" fill="#D55E00" fill-opacity="0.38"/>
<circle cx="369.6" cy="306.9" r="3" fill="#D55E00" fill-opacity="0.38"/>
<circle cx="744.0" cy="333.3" r="3" fill="#D55E00" fill-opacity="0.38"/>
<polyline points="120.0,294.0 369.6,306.9 744.0,333.3" fill="none" stroke="#D55E00" stroke-width="1.2" stroke-opacity=".38"/>
<circle cx="120.0" cy="307.1" r="3" fill="#D55E00" fill-opacity="0.38"/>
<circle cx="369.6" cy="373.9" r="3" fill="#D55E00" fill-opacity="0.38"/>
<circle cx="744.0" cy="342.3" r="3" fill="#D55E00" fill-opacity="0.38"/>
<polyline points="120.0,307.1 369.6,373.9 744.0,342.3" fill="none" stroke="#D55E00" stroke-width="1.2" stroke-opacity=".38"/>
<circle cx="120.0" cy="293.0" r="3" fill="#D55E00" fill-opacity="0.38"/>
<circle cx="369.6" cy="316.7" r="3" fill="#D55E00" fill-opacity="0.38"/>
<circle cx="744.0" cy="329.5" r="3" fill="#D55E00" fill-opacity="0.38"/>
<polyline points="120.0,293.0 369.6,316.7 744.0,329.5" fill="none" stroke="#D55E00" stroke-width="1.2" stroke-opacity=".38"/>
<circle cx="120.0" cy="298.1" r="5.3" fill="#D55E00" fill-opacity="1.0"/>
<text class="small" x="128.0" y="288.1" text-anchor="start">3.9271</text>
<circle cx="369.6" cy="332.5" r="5.3" fill="#D55E00" fill-opacity="1.0"/>
<text class="small" x="369.6" y="322.5" text-anchor="middle">3.9233</text>
<circle cx="744.0" cy="335.0" r="5.3" fill="#D55E00" fill-opacity="1.0"/>
<text class="small" x="744.0" y="325.0" text-anchor="middle">3.9230</text>
<polyline points="120.0,298.1 369.6,332.5 744.0,335.0" fill="none" stroke="#D55E00" stroke-width="3"/>
<rect x="117.0" y="368.2764399761179" width="6" height="6" rx="1" fill="#0072B2" fill-opacity="0.38"/>
<rect x="366.6" y="413.2236868029892" width="6" height="6" rx="1" fill="#0072B2" fill-opacity="0.38"/>
<rect x="741.0" y="397.11591856303613" width="6" height="6" rx="1" fill="#0072B2" fill-opacity="0.38"/>
<polyline points="120.0,371.3 369.6,416.2 744.0,400.1" fill="none" stroke="#0072B2" stroke-width="1.2" stroke-opacity=".38"/>
<rect x="117.0" y="340.2138619861854" width="6" height="6" rx="1" fill="#0072B2" fill-opacity="0.38"/>
<rect x="366.6" y="394.872366275354" width="6" height="6" rx="1" fill="#0072B2" fill-opacity="0.38"/>
<rect x="741.0" y="385.3888361582791" width="6" height="6" rx="1" fill="#0072B2" fill-opacity="0.38"/>
<polyline points="120.0,343.2 369.6,397.9 744.0,388.4" fill="none" stroke="#0072B2" stroke-width="1.2" stroke-opacity=".38"/>
<rect x="117.0" y="369.7246983043185" width="6" height="6" rx="1" fill="#0072B2" fill-opacity="0.38"/>
<rect x="366.6" y="387.12131573081206" width="6" height="6" rx="1" fill="#0072B2" fill-opacity="0.38"/>
<rect x="741.0" y="398.4266646096986" width="6" height="6" rx="1" fill="#0072B2" fill-opacity="0.38"/>
<polyline points="120.0,372.7 369.6,390.1 744.0,401.4" fill="none" stroke="#0072B2" stroke-width="1.2" stroke-opacity=".38"/>
<rect x="114.7" y="357.1050000888726" width="10.6" height="10.6" rx="1" fill="#0072B2" fill-opacity="1.0"/>
<text class="small" x="128.0" y="352.4" text-anchor="start">3.9201</text>
<rect x="364.3" y="396.105789603049" width="10.6" height="10.6" rx="1" fill="#0072B2" fill-opacity="1.0"/>
<text class="small" x="369.6" y="391.4" text-anchor="middle">3.9158</text>
<rect x="738.7" y="391.3438064436672" width="10.6" height="10.6" rx="1" fill="#0072B2" fill-opacity="1.0"/>
<text class="small" x="744.0" y="386.6" text-anchor="middle">3.9163</text>
<polyline points="120.0,362.4 369.6,401.4 744.0,396.6" fill="none" stroke="#0072B2" stroke-width="3"/>
<line x1="120" y1="148.8" x2="744" y2="148.8" stroke="#5F6368" stroke-width="1.4" stroke-dasharray="7 5"/>
<text class="small" x="740" y="141.8" text-anchor="end">B1 allocation reference 3.9433</text>
<line x1="160" y1="505" x2="194" y2="505" stroke="#D55E00" stroke-width="3"/><circle cx="177" cy="505" r="4" fill="#D55E00"/><text class="small" x="202" y="509">MLP mean + 3 seed paths</text>
<line x1="430" y1="505" x2="464" y2="505" stroke="#0072B2" stroke-width="3"/><rect x="443" y="501" width="8" height="8" fill="#0072B2"/><text class="small" x="472" y="509">Transformer mean + 3 seed paths</text>
<rect class="panel" x="798" y="82" width="420" height="445"/>
<text class="panel-title" x="816" y="110">B  Capacity at 1.0 s history</text>
<line class="axis" x1="860" y1="430" x2="1185" y2="430"/>
<line class="axis" x1="860" y1="135" x2="860" y2="430"/>
<line class="grid" x1="860" y1="430.0" x2="1185" y2="430.0"/>
<text class="small" x="852" y="433.5" text-anchor="end">3.9123</text>
<line class="grid" x1="860" y1="356.3" x2="1185" y2="356.3"/>
<text class="small" x="852" y="359.8" text-anchor="end">3.9139</text>
<line class="grid" x1="860" y1="282.5" x2="1185" y2="282.5"/>
<text class="small" x="852" y="286.0" text-anchor="end">3.9154</text>
<line class="grid" x1="860" y1="208.7" x2="1185" y2="208.7"/>
<text class="small" x="852" y="212.2" text-anchor="end">3.9170</text>
<line class="grid" x1="860" y1="135.0" x2="1185" y2="135.0"/>
<text class="small" x="852" y="138.5" text-anchor="end">3.9185</text>
<text class="label" x="860.0" y="452" text-anchor="middle">0.167M</text>
<text class="label" x="1022.5" y="452" text-anchor="middle">0.498M</text>
<text class="label" x="1185.0" y="452" text-anchor="middle">1.027M</text>
<text class="label" x="1022.5" y="475" text-anchor="middle">Trainable parameters</text>
<rect x="857.0" y="170.2468891551486" width="6" height="6" rx="1" fill="#0072B2" fill-opacity="0.38"/>
<rect x="1019.5" y="240.39529912931027" width="6" height="6" rx="1" fill="#0072B2" fill-opacity="0.38"/>
<rect x="1182.0" y="254.04609627354353" width="6" height="6" rx="1" fill="#0072B2" fill-opacity="0.38"/>
<polyline points="860.0,173.2 1022.5,243.4 1185.0,257.0" fill="none" stroke="#0072B2" stroke-width="1.2" stroke-opacity=".38"/>
<rect x="857.0" y="299.7562054150234" width="6" height="6" rx="1" fill="#0072B2" fill-opacity="0.38"/>
<rect x="1019.5" y="219.9350612586471" width="6" height="6" rx="1" fill="#0072B2" fill-opacity="0.38"/>
<rect x="1182.0" y="193.00049742111108" width="6" height="6" rx="1" fill="#0072B2" fill-opacity="0.38"/>
<polyline points="860.0,302.8 1022.5,222.9 1185.0,196.0" fill="none" stroke="#0072B2" stroke-width="1.2" stroke-opacity=".38"/>
<rect x="857.0" y="178.67719106553017" width="6" height="6" rx="1" fill="#0072B2" fill-opacity="0.38"/>
<rect x="1019.5" y="388.7531108448514" width="6" height="6" rx="1" fill="#0072B2" fill-opacity="0.38"/>
<rect x="1182.0" y="260.8692151534374" width="6" height="6" rx="1" fill="#0072B2" fill-opacity="0.38"/>
<polyline points="860.0,181.7 1022.5,391.8 1185.0,263.9" fill="none" stroke="#0072B2" stroke-width="1.2" stroke-opacity=".38"/>
<rect x="854.7" y="213.92676187855324" width="10.6" height="10.6" rx="1" fill="#0072B2" fill-opacity="1.0"/>
<text class="small" x="869.0" y="208.2" text-anchor="start">3.9168</text>
<rect x="1017.2" y="280.7278237442625" width="10.6" height="10.6" rx="1" fill="#0072B2" fill-opacity="1.0"/>
<text class="small" x="1022.5" y="275.0" text-anchor="middle">3.9154</text>
<rect x="1179.7" y="233.67193628267609" width="10.6" height="10.6" rx="1" fill="#0072B2" fill-opacity="1.0"/>
<text class="small" x="1185.0" y="228.0" text-anchor="middle">3.9163</text>
<polyline points="860.0,219.2 1022.5,286.0 1185.0,239.0" fill="none" stroke="#0072B2" stroke-width="3"/>
<text class="small" x="1022.5" y="507" text-anchor="middle">Medium is numerically best: no monotonic scaling curve</text></svg>