<svg xmlns="http://www.w3.org/2000/svg" width="1320" height="530" viewBox="0 0 1320 530" role="img" aria-labelledby="title desc">
<title id="title">Closed-loop factorial response</title><desc id="desc">Three physical and predictive outcomes for four predictor-style series under fixed and adaptive risk.</desc>
<style>
text { font-family: Arial, Helvetica, sans-serif; fill: #202124; }
.title { font-size: 18px; font-weight: 600; }
.subtitle { font-size: 11.5px; fill: #5F6368; }
.panel-title { font-size: 13px; font-weight: 600; }
.label { font-size: 11px; } .small { font-size: 9.5px; }
.axis { stroke: #202124; stroke-width: 1.1; }
.grid { stroke: #D9D9D9; stroke-width: .8; }
.panel { fill: #FFFFFF; stroke: none; }
</style><rect width="100%" height="100%" fill="#FFFFFF"/><text class="title" x="48" y="38">Closed-loop predictor-risk response</text>
<text class="subtitle" x="48" y="60">Task-adapted and validation-selected predictors across risk policy and target response.</text>
<rect class="panel" x="38" y="79" width="405" height="395"/>
<text class="panel-title" x="56" y="107">A  Completion time</text>
<line class="axis" x1="102" y1="399" x2="408" y2="399"/>
<line class="axis" x1="102" y1="132" x2="102" y2="399"/>
<line class="grid" x1="102" y1="399.0" x2="408" y2="399.0"/>
<text class="small" x="94" y="402.5" text-anchor="end">10.20</text>
<line class="grid" x1="102" y1="332.2" x2="408" y2="332.2"/>
<text class="small" x="94" y="335.8" text-anchor="end">10.79</text>
<line class="grid" x1="102" y1="265.5" x2="408" y2="265.5"/>
<text class="small" x="94" y="269.0" text-anchor="end">11.38</text>
<line class="grid" x1="102" y1="198.8" x2="408" y2="198.8"/>
<text class="small" x="94" y="202.2" text-anchor="end">11.96</text>
<line class="grid" x1="102" y1="132.0" x2="408" y2="132.0"/>
<text class="small" x="94" y="135.5" text-anchor="end">12.55</text>
<text class="label" x="102.0" y="421" text-anchor="middle">Fixed medium</text>
<text class="label" x="408.0" y="421" text-anchor="middle">Adaptive</text>
<circle cx="102.0" cy="288.8" r="5" fill="#1B365D" fill-opacity="1.0"/>
<text class="small" x="102.0" y="278.8" text-anchor="middle">11.170</text>
<circle cx="408.0" cy="294.5" r="5" fill="#1B365D" fill-opacity="1.0"/>
<text class="small" x="408.0" y="284.5" text-anchor="middle">11.120</text>
<polyline points="102.0,288.8 408.0,294.5" fill="none" stroke="#1B365D" stroke-width="2.7"/>
<circle cx="102.0" cy="213.2" r="5" fill="#56B4E9" fill-opacity="1.0"/>
<circle cx="408.0" cy="195.1" r="5" fill="#56B4E9" fill-opacity="1.0"/>
<polyline points="102.0,213.2 408.0,195.1" fill="none" stroke="#56B4E9" stroke-width="2.7" stroke-dasharray="7 4"/>
<rect x="97.0" y="322.98934337512605" width="10" height="10" rx="1" fill="#D55E00" fill-opacity="1.0"/>
<text class="small" x="102.0" y="318.0" text-anchor="middle">10.825</text>
<rect x="403.0" y="367.29998233327836" width="10" height="10" rx="1" fill="#D55E00" fill-opacity="1.0"/>
<text class="small" x="408.0" y="362.3" text-anchor="middle">10.435</text>
<polyline points="102.0,328.0 408.0,372.3" fill="none" stroke="#D55E00" stroke-width="2.7"/>
<rect x="97.0" y="148.0191280019093" width="10" height="10" rx="1" fill="#A33A2B" fill-opacity="1.0"/>
<rect x="403.0" y="162.221255873112" width="10" height="10" rx="1" fill="#A33A2B" fill-opacity="1.0"/>
<polyline points="102.0,153.0 408.0,167.2" fill="none" stroke="#A33A2B" stroke-width="2.7" stroke-dasharray="7 4"/>
<text class="small" transform="translate(56 265.5) rotate(-90)" text-anchor="middle">s (preferred: lower)</text>
<rect class="panel" x="465" y="79" width="405" height="395"/>
<text class="panel-title" x="483" y="107">B  Minimum separation</text>
<line class="axis" x1="529" y1="399" x2="835" y2="399"/>
<line class="axis" x1="529" y1="132" x2="529" y2="399"/>
<line class="grid" x1="529" y1="399.0" x2="835" y2="399.0"/>
<text class="small" x="521" y="402.5" text-anchor="end">1.060</text>
<line class="grid" x1="529" y1="332.2" x2="835" y2="332.2"/>
<text class="small" x="521" y="335.7" text-anchor="end">1.090</text>
<line class="grid" x1="529" y1="265.5" x2="835" y2="265.5"/>
<text class="small" x="521" y="269.0" text-anchor="end">1.120</text>
<line class="grid" x1="529" y1="198.8" x2="835" y2="198.8"/>
<text class="small" x="521" y="202.3" text-anchor="end">1.150</text>
<line class="grid" x1="529" y1="132.0" x2="835" y2="132.0"/>
<text class="small" x="521" y="135.5" text-anchor="end">1.180</text>
<text class="label" x="529.0" y="421" text-anchor="middle">Fixed medium</text>
<text class="label" x="835.0" y="421" text-anchor="middle">Adaptive</text>
<circle cx="529.0" cy="166.0" r="5" fill="#1B365D" fill-opacity="1.0"/>
<text class="small" x="529.0" y="156.0" text-anchor="middle">1.1647</text>
<circle cx="835.0" cy="213.7" r="5" fill="#1B365D" fill-opacity="1.0"/>
<text class="small" x="835.0" y="203.7" text-anchor="middle">1.1433</text>
<polyline points="529.0,166.0 835.0,213.7" fill="none" stroke="#1B365D" stroke-width="2.7"/>
<circle cx="529.0" cy="305.5" r="5" fill="#56B4E9" fill-opacity="1.0"/>
<circle cx="835.0" cy="356.9" r="5" fill="#56B4E9" fill-opacity="1.0"/>
<polyline points="529.0,305.5 835.0,356.9" fill="none" stroke="#56B4E9" stroke-width="2.7" stroke-dasharray="7 4"/>
<rect x="524.0" y="171.501850665297" width="10" height="10" rx="1" fill="#D55E00" fill-opacity="1.0"/>
<text class="small" x="529.0" y="194.5" text-anchor="middle">1.1600</text>
<rect x="830.0" y="227.51197334004317" width="10" height="10" rx="1" fill="#D55E00" fill-opacity="1.0"/>
<text class="small" x="835.0" y="250.5" text-anchor="middle">1.1348</text>
<polyline points="529.0,176.5 835.0,232.5" fill="none" stroke="#D55E00" stroke-width="2.7"/>
<rect x="524.0" y="337.8224148076387" width="10" height="10" rx="1" fill="#A33A2B" fill-opacity="1.0"/>
<rect x="830.0" y="261.52499361935935" width="10" height="10" rx="1" fill="#A33A2B" fill-opacity="1.0"/>
<polyline points="529.0,342.8 835.0,266.5" fill="none" stroke="#A33A2B" stroke-width="2.7" stroke-dasharray="7 4"/>
<text class="small" transform="translate(483 265.5) rotate(-90)" text-anchor="middle">m (preferred: higher)</text>
<rect class="panel" x="892" y="79" width="405" height="395"/>
<text class="panel-title" x="910" y="107">C  In-loop top-1 ADE</text>
<line class="axis" x1="956" y1="399" x2="1262" y2="399"/>
<line class="axis" x1="956" y1="132" x2="956" y2="399"/>
<line class="grid" x1="956" y1="399.0" x2="1262" y2="399.0"/>
<text class="small" x="948" y="402.5" text-anchor="end">0.05</text>
<line class="grid" x1="956" y1="332.2" x2="1262" y2="332.2"/>
<text class="small" x="948" y="335.8" text-anchor="end">0.16</text>
<line class="grid" x1="956" y1="265.5" x2="1262" y2="265.5"/>
<text class="small" x="948" y="269.0" text-anchor="end">0.27</text>
<line class="grid" x1="956" y1="198.8" x2="1262" y2="198.8"/>
<text class="small" x="948" y="202.2" text-anchor="end">0.37</text>
<line class="grid" x1="956" y1="132.0" x2="1262" y2="132.0"/>
<text class="small" x="948" y="135.5" text-anchor="end">0.48</text>
<text class="label" x="956.0" y="421" text-anchor="middle">Fixed medium</text>
<text class="label" x="1262.0" y="421" text-anchor="middle">Adaptive</text>
<circle cx="956.0" cy="375.1" r="5" fill="#1B365D" fill-opacity="1.0"/>
<text class="small" x="956.0" y="365.1" text-anchor="middle">0.089</text>
<circle cx="1262.0" cy="375.1" r="5" fill="#1B365D" fill-opacity="1.0"/>
<text class="small" x="1262.0" y="365.1" text-anchor="middle">0.088</text>
<polyline points="956.0,375.1 1262.0,375.1" fill="none" stroke="#1B365D" stroke-width="2.7"/>
<circle cx="956.0" cy="151.7" r="5" fill="#56B4E9" fill-opacity="1.0"/>
<text class="small" x="956.0" y="141.7" text-anchor="middle">0.448</text>
<circle cx="1262.0" cy="172.7" r="5" fill="#56B4E9" fill-opacity="1.0"/>
<text class="small" x="1262.0" y="162.7" text-anchor="middle">0.414</text>
<polyline points="956.0,151.7 1262.0,172.7" fill="none" stroke="#56B4E9" stroke-width="2.7" stroke-dasharray="7 4"/>
<rect x="951.0" y="370.6461206216777" width="10" height="10" rx="1" fill="#D55E00" fill-opacity="1.0"/>
<text class="small" x="956.0" y="393.6" text-anchor="middle">0.088</text>
<rect x="1257.0" y="370.3557470676762" width="10" height="10" rx="1" fill="#D55E00" fill-opacity="1.0"/>
<text class="small" x="1262.0" y="393.4" text-anchor="middle">0.088</text>
<polyline points="956.0,375.6 1262.0,375.4" fill="none" stroke="#D55E00" stroke-width="2.7"/>
<rect x="951.0" y="191.9526239915758" width="10" height="10" rx="1" fill="#A33A2B" fill-opacity="1.0"/>
<text class="small" x="956.0" y="187.0" text-anchor="middle">0.375</text>
<rect x="1257.0" y="194.95962000338815" width="10" height="10" rx="1" fill="#A33A2B" fill-opacity="1.0"/>
<text class="small" x="1262.0" y="190.0" text-anchor="middle">0.371</text>
<polyline points="956.0,197.0 1262.0,200.0" fill="none" stroke="#A33A2B" stroke-width="2.7" stroke-dasharray="7 4"/>
<text class="small" transform="translate(910 265.5) rotate(-90)" text-anchor="middle">m (preferred: lower)</text>
<line x1="225" y1="501" x2="259" y2="501" stroke="#1B365D" stroke-width="2.7"/>
<circle cx="242.0" cy="501.0" r="4.5" fill="#1B365D" fill-opacity="1.0"/>
<text class="small" x="268" y="505">B1 / assertive</text>
<line x1="470" y1="501" x2="504" y2="501" stroke="#56B4E9" stroke-width="2.7" stroke-dasharray="7 4"/>
<circle cx="487.0" cy="501.0" r="4.5" fill="#56B4E9" fill-opacity="1.0"/>
<text class="small" x="513" y="505">B1 / reactive</text>
<line x1="715" y1="501" x2="749" y2="501" stroke="#D55E00" stroke-width="2.7"/>
<rect x="727.5" y="496.5" width="9.0" height="9.0" rx="1" fill="#D55E00" fill-opacity="1.0"/>
<text class="small" x="758" y="505">P* / assertive</text>
<line x1="960" y1="501" x2="994" y2="501" stroke="#A33A2B" stroke-width="2.7" stroke-dasharray="7 4"/>
<rect x="972.5" y="496.5" width="9.0" height="9.0" rx="1" fill="#A33A2B" fill-opacity="1.0"/>
<text class="small" x="1003" y="505">P* / reactive</text></svg>