<svg xmlns="http://www.w3.org/2000/svg" width="860" height="520" viewBox="0 0 860 520">
<style>text{font-family:Arial,Helvetica,sans-serif;font-size:12px;fill:#222}.title{font-size:16px;font-weight:bold}.axis{stroke:#333;stroke-width:1}.grid{stroke:#ddd;stroke-width:1}.label{font-size:11px}.legend{font-size:11px}</style>
<text x="430.0" y="28" text-anchor="middle" class="title">A1 arrival-gap sweep: completion vs footprint margin</text>
<line x1="75" y1="445" x2="815" y2="445" class="axis"/>
<line x1="75" y1="55" x2="75" y2="445" class="axis"/>
<text x="445.0" y="494" text-anchor="middle">completion time (s)</text>
<text x="20" y="250.0" transform="rotate(-90 20 250.0)" text-anchor="middle">min footprint separation (m)</text>
<line x1="75.0" y1="55" x2="75.0" y2="445" class="grid"/>
<line x1="75" y1="445.0" x2="815" y2="445.0" class="grid"/>
<text x="75.0" y="463" text-anchor="middle" class="label">9.2</text>
<text x="67" y="449.0" text-anchor="end" class="label">1.22</text>
<line x1="260.0" y1="55" x2="260.0" y2="445" class="grid"/>
<line x1="75" y1="347.5" x2="815" y2="347.5" class="grid"/>
<text x="260.0" y="463" text-anchor="middle" class="label">9.9</text>
<text x="67" y="351.5" text-anchor="end" class="label">1.39</text>
<line x1="445.0" y1="55" x2="445.0" y2="445" class="grid"/>
<line x1="75" y1="250.0" x2="815" y2="250.0" class="grid"/>
<text x="445.0" y="463" text-anchor="middle" class="label">10.7</text>
<text x="67" y="254.0" text-anchor="end" class="label">1.56</text>
<line x1="630.0" y1="55" x2="630.0" y2="445" class="grid"/>
<line x1="75" y1="152.5" x2="815" y2="152.5" class="grid"/>
<text x="630.0" y="463" text-anchor="middle" class="label">11.4</text>
<text x="67" y="156.5" text-anchor="end" class="label">1.73</text>
<line x1="815.0" y1="55" x2="815.0" y2="445" class="grid"/>
<line x1="75" y1="55.0" x2="815" y2="55.0" class="grid"/>
<text x="815.0" y="463" text-anchor="middle" class="label">12.2</text>
<text x="67" y="59.0" text-anchor="end" class="label">1.90</text>
<circle cx="263.6" cy="404.7" r="5.5" fill="#CC79A7" opacity="0.85"/>
<text x="270.6" y="397.7" class="label">m1p5</text>
<circle cx="276.1" cy="379.8" r="5.5" fill="#D55E00" opacity="0.85"/>
<text x="283.1" y="372.8" class="label">m1p5</text>
<circle cx="226.1" cy="378.0" r="5.5" fill="#009E73" opacity="0.85"/>
<text x="233.1" y="371.0" class="label">m1p5</text>
<circle cx="263.6" cy="356.0" r="5.5" fill="#0072B2" opacity="0.85"/>
<text x="270.6" y="349.0" class="label">m1p5</text>
<circle cx="351.2" cy="416.5" r="5.5" fill="#CC79A7" opacity="0.85"/>
<text x="358.2" y="409.5" class="label">m3p0</text>
<circle cx="438.7" cy="383.5" r="5.5" fill="#D55E00" opacity="0.85"/>
<text x="445.7" y="376.5" class="label">m3p0</text>
<circle cx="626.4" cy="383.1" r="5.5" fill="#009E73" opacity="0.85"/>
<text x="633.4" y="376.1" class="label">m3p0</text>
<circle cx="526.3" cy="385.5" r="5.5" fill="#0072B2" opacity="0.85"/>
<text x="533.3" y="378.5" class="label">m3p0</text>
<circle cx="313.7" cy="403.2" r="5.5" fill="#CC79A7" opacity="0.85"/>
<text x="320.7" y="396.2" class="label">p0p0</text>
<circle cx="338.7" cy="379.3" r="5.5" fill="#D55E00" opacity="0.85"/>
<text x="345.7" y="372.3" class="label">p0p0</text>
<circle cx="351.2" cy="378.9" r="5.5" fill="#009E73" opacity="0.85"/>
<text x="358.2" y="371.9" class="label">p0p0</text>
<circle cx="363.7" cy="377.9" r="5.5" fill="#0072B2" opacity="0.85"/>
<text x="370.7" y="370.9" class="label">p0p0</text>
<circle cx="201.1" cy="395.0" r="5.5" fill="#CC79A7" opacity="0.85"/>
<text x="208.1" y="388.0" class="label">p1p5</text>
<circle cx="538.8" cy="383.2" r="5.5" fill="#D55E00" opacity="0.85"/>
<text x="545.8" y="376.2" class="label">p1p5</text>
<circle cx="126.0" cy="380.0" r="5.5" fill="#009E73" opacity="0.85"/>
<text x="133.0" y="373.0" class="label">p1p5</text>
<circle cx="188.6" cy="381.6" r="5.5" fill="#0072B2" opacity="0.85"/>
<text x="195.6" y="374.6" class="label">p1p5</text>
<circle cx="463.8" cy="83.5" r="5.5" fill="#CC79A7" opacity="0.85"/>
<text x="470.8" y="76.5" class="label">p3p0</text>
<circle cx="138.5" cy="184.7" r="5.5" fill="#D55E00" opacity="0.85"/>
<text x="145.5" y="177.7" class="label">p3p0</text>
<circle cx="764.0" cy="213.4" r="5.5" fill="#009E73" opacity="0.85"/>
<text x="771.0" y="206.4" class="label">p3p0</text>
<circle cx="151.1" cy="176.7" r="5.5" fill="#0072B2" opacity="0.85"/>
<text x="158.1" y="169.7" class="label">p3p0</text>
<rect x="75" y="501" width="12" height="12" fill="#CC79A7"/>
<text x="92" y="512" class="legend">adaptive floor_weak</text>
<rect x="240" y="501" width="12" height="12" fill="#D55E00"/>
<text x="257" y="512" class="legend">fixed aggressive</text>
<rect x="405" y="501" width="12" height="12" fill="#009E73"/>
<text x="422" y="512" class="legend">fixed conservative</text>
<rect x="570" y="501" width="12" height="12" fill="#0072B2"/>
<text x="587" y="512" class="legend">fixed medium</text>
</svg>
